:SAMPLES-PER-SECOND 30
:FULLY-SPECIFIED
:DEGREES
93
root  -20.8674 40.2673 -24.3404 6.84771 -29.9631 -8.37399
RightUpLeg  8.70791 -12.3082 -6.46213
RightLeg  25.4029 2.88849 1.25954
RightFoot  8.48625 -2.85933 16.5588
RightToes  -1.74624e-010 0 -3.6325e-017
Spine  1.4985 4.30393 8.85593
Spine1  6.34609 5.90491 -6.52503
HEad  -2.53984 1.00035 -2.73677
LeftShoulder1  7.68316 -11.6783 -44.053
LeftArm  5.68691 43.9989 -20.3037
LeftForeArm  177.682 -55.6281 -165.993
LeftHand  -0.244104 0.0205437 5.32207
RightShoulder  5.60259 9.15664 38.1989
RightArm  8.27178 -13.7929 35.3083
RightForeArm  164.075 58.0974 163.489
RightHand  -0.0322656 -8.14862 -0.516074
LeftUpLeg  -19.3056 16.6831 -12.3602
LeftLeg  18.3478 7.17924 2.42721
LeftFoot  -16.7549 0.0574106 -0.914109
LeftToes  1.28235e-010 -1.10989e-010 2.53219e-011
94
root  -22.0477 39.8317 -23.0959 5.93344 -27.4889 -8.0146
RightUpLeg  5.67578 -5.59157 -5.19447
RightLeg  35.738 2.22392 1.4707
RightFoot  10.2467 -2.84775 15.2154
RightToes  -1.74624e-010 0 -3.6325e-017
Spine  2.1086 4.36583 7.84555
Spine1  6.77418 6.0143 -6.95663
HEad  -3.2011 0.319137 -2.02461
LeftShoulder1  7.69745 -11.8649 -43.5754
LeftArm  2.72013 44.6298 -21.4142
LeftForeArm  178.758 -55.4456 -166.169
LeftHand  -0.244104 0.0205437 5.32207
RightShoulder  5.89474 9.70269 38.5679
RightArm  10.0892 -13.9967 34.1597
RightForeArm  163.791 58.9299 162.951
RightHand  -0.0214991 -7.82445 -0.955216
LeftUpLeg  -16.6558 13.3075 -11.6928
LeftLeg  15.713 11.1475 1.41836
LeftFoot  -16.8548 0.15103 1.07601
LeftToes  1.28235e-010 -1.10989e-010 2.53219e-011
95
root  -23.1665 39.0428 -21.8568 4.4827 -25.4517 -7.20831
RightUpLeg  2.52554 -0.722041 -5.98075
RightLeg  47.011 0.995447 0.773229
RightFoot  9.85437 -2.79149 15.2071
RightToes  -1.74624e-010 0 -3.6325e-017
Spine  3.70674 4.17986 6.41579
Spine1  6.77575 5.83523 -7.03634
HEad  -5.10024 0.106252 -1.86325
LeftShoulder1  7.54695 -11.678 -43.2287
LeftArm  0.0346683 43.7079 -22.7717
LeftForeArm  179.827 -55.7591 -166.099
LeftHand  -0.244104 0.0205437 5.32207
RightShoulder  6.08826 9.994 39.0188
RightArm  11.3625 -14.6732 33.3793
RightForeArm  164.808 60.2921 162.163
RightHand  -0.0428501 -7.82068 0.0251059
LeftUpLeg  -15.6175 13.8985 -13.1873
LeftLeg  18.6904 11.7778 3.07859
LeftFoot  -17.168 0.481912 7.35987
LeftToes  1.28235e-010 -1.10989e-010 2.53219e-011
96
root  -24.1855 38.2001 -20.6195 2.79989 -23.1432 -5.64353
RightUpLeg  -1.38189 2.5549 -8.57073
RightLeg  57.7817 -0.931152 -2.10222
RightFoot  9.46522 -2.44647 13.6294
RightToes  -1.74624e-010 0 -3.6325e-017
Spine  6.052 3.4984 4.58949
Spine1  6.29495 5.24644 -6.96987
HEad  -8.66083 -0.0786351 -1.77767
LeftShoulder1  7.26646 -11.0457 -43.4466
LeftArm  -1.77096 40.0379 -23.4907
LeftForeArm  179.043 -57.3828 -165.164
LeftHand  -0.244104 0.0205437 5.32207
RightShoulder  6.19769 10.0204 39.7056
RightArm  11.5506 -15.8212 33.6167
RightForeArm  164.728 63.4435 159.73
RightHand  -0.0525033 -7.2962 0.595259
LeftUpLeg  -15.3683 13.7105 -15.6081
LeftLeg  24.7644 12.1674 6.60977
LeftFoot  -18.7762 1.0646 14.4375
LeftToes  1.28235e-010 -1.10989e-010 2.53219e-011
97
root  -25.098 37.4894 -19.4561 1.23835 -20.2986 -3.68431
RightUpLeg  -6.54969 4.56751 -11.856
RightLeg  67.216 -2.10531 -6.18437
RightFoot  8.57994 -1.59276 9.35022
RightToes  -1.74624e-010 0 -3.6325e-017
Spine  8.89629 2.49911 2.53146
Spine1  5.95446 4.3452 -7.09944
HEad  -13.2222 -0.535698 -1.17773
LeftShoulder1  7.27533 -10.602 -44.9218
LeftArm  -2.86426 33.3457 -23.1085
LeftForeArm  177.026 -60.9038 -162.824
LeftHand  -0.244104 0.0205437 5.32207
RightShoulder  6.40771 10.0119 41.1966
RightArm  9.81305 -17.4502 34.0053
RightForeArm  158.415 69.7837 151.805
RightHand  -0.0236067 -6.01697 -2.06941
LeftUpLeg  -14.9813 10.2085 -16.9806
LeftLeg  31.8112 14.0936 9.55349
LeftFoot  -22.258 1.78449 17.2515
LeftToes  1.28235e-010 -1.10989e-010 2.53219e-011
98
root  -25.9304 37.1477 -18.2537 0.285566 -17.2579 -2.40094
RightUpLeg  -12.3008 5.3277 -14.1731
RightLeg  73.2828 -2.30796 -9.61633
RightFoot  6.23092 -0.688088 4.71012
RightToes  -1.74624e-010 0 -3.6325e-017
Spine  11.2459 1.61056 0.550635
Spine1  6.28459 3.20937 -6.518
HEad  -17.1539 -1.02033 -0.533168
LeftShoulder1  7.83455 -10.9496 -47.2826
LeftArm  -3.74539 26.0119 -22.7441
LeftForeArm  176.535 -64.5173 -160.099
LeftHand  -0.244104 0.0205437 5.32207
RightShoulder  6.72283 10.0718 43.1671
RightArm  6.34076 -20.5601 33.0371
RightForeArm  143.167 76.6104 134.438
RightHand  0.00099179 -5.87351 -5.51162
LeftUpLeg  -13.1423 9.45248 -17.1803
LeftLeg  35.4553 12.5391 9.79116
LeftFoot  -25.7957 2.19558 15.9869
LeftToes  1.28235e-010 -1.10989e-010 2.53219e-011
99
root  -26.6481 37.3514 -16.8031 0.391604 -14.3486 -2.87573
RightUpLeg  -17.5969 4.48918 -14.081
RightLeg  74.3542 -2.68111 -11.9079
RightFoot  3.16294 -0.315491 2.70493
RightToes  -1.74624e-010 0 -3.6325e-017
Spine  12.3059 0.761912 -0.61446
Spine1  6.66087 1.60332 -3.91144
HEad  -19.6422 -0.791698 -0.967685
LeftShoulder1  8.4161 -11.5543 -48.7925
LeftArm  -4.14858 21.1206 -24.5488
LeftForeArm  178.91 -65.4443 -159.505
LeftHand  -0.244104 0.0205437 5.32207
RightShoulder  6.79582 9.94964 44.0816
RightArm  3.64609 -26.5212 30.3691
RightForeArm  131.092 79.0428 119.979
RightHand  0.0484677 -6.98019 -5.88521
LeftUpLeg  -8.89133 9.68661 -15.158
LeftLeg  33.4999 10.2828 7.62883
LeftFoot  -27.038 2.19142 14.6156
LeftToes  1.28235e-010 -1.10989e-010 2.53219e-011
100
root  -27.2156 38.0269 -15.1059 1.54959 -11.5109 -5.03351
RightUpLeg  -21.9 1.88684 -11.3816
RightLeg  70.5084 -4.20519 -13.7888
RightFoot  0.779873 -0.37644 3.6066
RightToes  -1.74624e-010 0 -3.6325e-017
Spine  12.5076 -0.516036 -0.673247
Spine1  5.97661 -0.777814 0.46881
HEad  -21.0323 0.930207 -2.85476
LeftShoulder1  8.39625 -11.63 -48.4203
LeftArm  -3.39655 19.5018 -28.8957
LeftForeArm  -178.214 -63.4143 -161.472
LeftHand  -0.244104 0.0205437 5.32207
RightShoulder  6.29157 9.35169 42.6077
RightArm  4.9052 -34.4983 26.7096
RightForeArm  138.726 77.3029 130.354
RightHand  0.0358575 -6.88507 -5.22781
LeftUpLeg  -3.46653 8.83883 -11.5017
LeftLeg  27.6655 8.73137 5.29403
LeftFoot  -25.3234 1.94018 14.521
LeftToes  1.28235e-010 -1.10989e-010 2.53219e-011
101
root  -27.6946 38.9775 -13.2667 3.44419 -8.78476 -7.53611
RightUpLeg  -25.2136 -1.90169 -7.13774
RightLeg  62.4364 -7.07298 -14.891
RightFoot  -0.802098 -0.432144 4.60186
RightToes  -1.74624e-010 0 -3.6325e-017
Spine  12.1762 -2.25966 -0.26062
Spine1  4.11855 -3.54899 4.97327
HEad  -21.4576 4.15237 -5.32017
LeftShoulder1  7.97786 -11.2782 -47.0851
LeftArm  -1.40775 19.7314 -33.0514
LeftForeArm  -177.609 -60.6283 -163.53
LeftHand  -0.244104 0.0205437 5.32207
RightShoulder  5.41928 8.47026 39.1515
RightArm  9.98705 -41.8763 22.8668
RightForeArm  142.896 73.4042 143.34
RightHand  -0.00170312 -5.84853 -6.60179
LeftUpLeg  1.26793 7.47159 -7.44717
LeftLeg  20.8001 6.91621 3.18407
LeftFoot  -20.9958 1.26158 13.261
LeftToes  1.28235e-010 -1.10989e-010 2.53219e-011
102
root  -28.1618 39.9844 -11.3152 5.53446 -6.59595 -9.23497
RightUpLeg  -27.2753 -5.7444 -2.60882
RightLeg  50.3711 -9.55298 -12.5982
RightFoot  -2.12567 -0.373324 4.44643
RightToes  -1.74624e-010 0 -3.6325e-017
Spine  11.0653 -3.95048 0.432166
Spine1  2.13888 -5.76154 7.96209
HEad  -20.5939 7.61067 -7.08306
LeftShoulder1  7.72254 -11.1149 -46.0639
LeftArm  1.2895 20.0919 -34.3908
LeftForeArm  -177.872 -58.5799 -164.761
LeftHand  -0.244104 0.0205437 5.32207
RightShoulder  4.73853 7.93909 35.4593
RightArm  14.7618 -47.9494 19.9084
RightForeArm  142.535 70.3003 149.207
RightHand  -0.0304907 -5.22904 -8.53076
LeftUpLeg  4.65877 7.62679 -3.52198
LeftLeg  14.9729 4.46677 0.817354
LeftFoot  -13.9795 0.320068 9.36393
LeftToes  1.28235e-010 -1.10989e-010 2.53219e-011
103
root  -28.6401 40.7812 -9.29782 7.09211 -5.53073 -9.80841
RightUpLeg  -27.7691 -8.90599 1.30559
RightLeg  35.7706 -8.39017 -6.85161
RightFoot  -2.99571 -0.402198 5.22639
RightToes  -1.74624e-010 0 -3.6325e-017
Spine  9.51656 -4.88011 1.56927
Spine1  0.980454 -6.67259 8.64901
HEad  -18.9936 9.78923 -7.57963
LeftShoulder1  7.68624 -11.2605 -45.3718
LeftArm  4.21724 19.5107 -33.5023
LeftForeArm  -177.19 -57.2501 -165.558
LeftHand  -0.244104 0.0205437 5.32207
RightShoulder  4.53879 8.14983 33.0122
RightArm  15.8769 -53.6948 18.4936
RightForeArm  146.942 68.3447 152.605
RightHand  -0.00506049 -5.66294 -8.20285
LeftUpLeg  6.58311 9.62022 -0.460042
LeftLeg  12.3628 3.3882 -0.987155
LeftFoot  -5.09758 -0.240536 4.8981
LeftToes  1.28235e-010 -1.10989e-010 2.53219e-011
104
root  -29.1174 41.1861 -7.29683 7.25714 -5.2493 -9.4467
RightUpLeg  -26.4059 -11.5505 4.04787
RightLeg  22.6054 -4.26015 -1.92477
RightFoot  -4.1403 -0.505794 7.6453
RightToes  -1.74624e-010 0 -3.6325e-017
Spine  8.70159 -5.00897 2.77598
Spine1  0.875405 -6.51081 7.67965
HEad  -18.0525 10.4806 -7.37799
LeftShoulder1  7.56105 -11.3036 -44.4653
LeftArm  6.76646 17.6944 -32.5264
LeftForeArm  -176.73 -56.739 -165.865
LeftHand  -0.244104 0.0205437 5.32207
RightShoulder  4.61184 8.68171 31.9028
RightArm  13.4621 -58.4389 19.2061
RightForeArm  151.755 66.8651 155.011
RightHand  0.0312635 -6.38994 -6.75407
LeftUpLeg  7.20066 13.4656 0.964989
LeftLeg  14.8667 1.97618 -0.551701
LeftFoot  2.07515 -0.227582 1.76107
LeftToes  1.28235e-010 -1.10989e-010 2.53219e-011
